v 0.642057 1.000000 0.0
v 1.000000 1.000000 0.0
v 0.755062 0.989261 0.0
v 0.825953 0.976698 0.0
v 1.000000 0.630315 0.0
v 0.993385 0.689494 0.0
v 0.978083 0.783703 0.0
v 0.881453 0.964543 0.0
v 0.956193 0.869052 0.0
v 0.924656 0.953668 0.0
v 1.000000 0.425260 0.0
v 1.000000 0.000000 0.0
v 0.986514 0.316754 0.0
v 0.629535 0.000000 0.0
v 0.698181 0.005146 0.0
v 0.782556 0.017219 0.0
v 0.963677 0.216376 0.0
v 0.848747 0.032348 0.0
v 0.935311 0.131274 0.0
v 0.895163 0.045152 0.0
v 0.000000 0.000000 0.0
v 0.433837 0.000000 0.0
v 0.330127 0.012857 0.0
v 0.000000 0.422483 0.0
v 0.012701 0.333483 0.0
v 0.249393 0.031332 0.0
v 0.037720 0.233833 0.0
v 0.180292 0.050969 0.0
v 0.072486 0.143639 0.0
v 0.107979 0.078322 0.0
v 0.444427 1.000000 0.0
v 0.369499 0.993233 0.0
v 0.000000 1.000000 0.0
v 0.000000 0.626342 0.0
v 0.017041 0.741167 0.0
v 0.268977 0.978400 0.0
v 0.032403 0.803147 0.0
v 0.171476 0.954311 0.0
v 0.051818 0.863009 0.0
v 0.077562 0.921002 0.0

f 1 2 3
f 3 2 4
f 5 6 2
f 7 2 6
f 4 2 8
f 9 2 7
f 8 2 10
f 10 2 9
f 11 12 13
f 14 15 12
f 16 12 15
f 13 12 17
f 18 12 16
f 17 12 19
f 20 12 18
f 19 12 20
f 21 22 23
f 24 25 21
f 23 21 26
f 27 21 25
f 26 21 28
f 29 21 27
f 28 21 30
f 30 21 29
f 31 32 33
f 34 33 35
f 36 32 33
f 35 37 33
f 38 36 33
f 37 39 33
f 40 38 33
f 39 40 33
