v 0.642057 1.000000 0.0
v 0.755062 0.989261 0.0
v 0.825953 0.976698 0.0
v 1.000000 0.630315 0.0
v 0.993385 0.689494 0.0
v 0.978083 0.783703 0.0
v 0.881453 0.964543 0.0
v 0.956193 0.869052 0.0
v 0.924656 0.953668 0.0
v 1.000000 0.425260 0.0
v 0.986514 0.316754 0.0
v 0.629535 0.000000 0.0
v 0.698181 0.005146 0.0
v 0.782556 0.017219 0.0
v 0.963677 0.216376 0.0
v 0.848747 0.032348 0.0
v 0.935311 0.131274 0.0
v 0.895163 0.045152 0.0
v 0.433837 0.000000 0.0
v 0.330127 0.012857 0.0
v 0.000000 0.422483 0.0
v 0.012701 0.333483 0.0
v 0.249393 0.031332 0.0
v 0.037720 0.233833 0.0
v 0.180292 0.050969 0.0
v 0.072486 0.143639 0.0
v 0.107979 0.078322 0.0
v 0.444427 1.000000 0.0
v 0.369499 0.993233 0.0
v 0.000000 0.626342 0.0
v 0.017041 0.741167 0.0
v 0.268977 0.978400 0.0
v 0.032403 0.803147 0.0
v 0.171476 0.954311 0.0
v 0.051818 0.863009 0.0
v 0.077562 0.921002 0.0
v 0.500000 0.500000 0.0

vn 0.0 0.0 1.0
vn 0.0 0.0 1.0
vn 0.0 0.0 1.0
vn 0.0 0.0 1.0
vn 0.0 0.0 1.0
vn 0.0 0.0 1.0
vn 0.0 0.0 1.0
vn 0.0 0.0 1.0
vn 0.0 0.0 1.0
vn 0.0 0.0 1.0
vn 0.0 0.0 1.0
vn 0.0 0.0 1.0
vn 0.0 0.0 1.0
vn 0.0 0.0 1.0
vn 0.0 0.0 1.0
vn 0.0 0.0 1.0
vn 0.0 0.0 1.0
vn 0.0 0.0 1.0
vn 0.0 0.0 1.0
vn 0.0 0.0 1.0
vn 0.0 0.0 1.0
vn 0.0 0.0 1.0
vn 0.0 0.0 1.0
vn 0.0 0.0 1.0
vn 0.0 0.0 1.0
vn 0.0 0.0 1.0
vn 0.0 0.0 1.0
vn 0.0 0.0 1.0
vn 0.0 0.0 1.0
vn 0.0 0.0 1.0
vn 0.0 0.0 1.0
vn 0.0 0.0 1.0
vn 0.0 0.0 1.0
vn 0.0 0.0 1.0
vn 0.0 0.0 1.0
vn 0.0 0.0 1.0
vn 0.0 0.0 1.0

f 1 37 2
f 2 37 3
f 4 5 37
f 6 37 5
f 3 37 7
f 8 37 6
f 7 37 9
f 9 37 8
f 10 37 11
f 12 13 37
f 14 37 13
f 11 37 15
f 16 37 14
f 15 37 17
f 18 37 16
f 17 37 18
f 37 19 20
f 21 22 37
f 20 37 23
f 24 37 22
f 23 37 25
f 26 37 24
f 25 37 27
f 27 37 26
f 28 29 37
f 30 37 31
f 32 29 37
f 31 33 37
f 34 32 37
f 33 35 37
f 36 34 37
f 35 36 37
f 1 37 28
f 12 37 19
f 21 37 30
f 4 37 10
