v 0.599440 0.850000 0.0
v 1.000000 1.000000 0.0
v 0.678544 0.842483 0.0
v 0.728167 0.833689 0.0
v 0.850000 0.591220 0.0
v 0.845370 0.632645 0.0
v 0.834658 0.698592 0.0
v 0.767017 0.825180 0.0
v 0.819335 0.758336 0.0
v 0.797259 0.817567 0.0
v 0.850000 0.447682 0.0
v 1.000000 0.000000 0.0
v 0.840560 0.371727 0.0
v 0.590675 0.150000 0.0
v 0.638727 0.153602 0.0
v 0.697789 0.162053 0.0
v 0.824574 0.301463 0.0
v 0.744123 0.172643 0.0
v 0.804718 0.241892 0.0
v 0.776614 0.181606 0.0
v 0.000000 0.000000 0.0
v 0.453686 0.150000 0.0
v 0.381089 0.159000 0.0
v 0.150000 0.445738 0.0
v 0.158891 0.383438 0.0
v 0.324575 0.171932 0.0
v 0.176404 0.313683 0.0
v 0.276205 0.185678 0.0
v 0.200740 0.250547 0.0
v 0.225586 0.204825 0.0
v 0.461099 0.850000 0.0
v 0.408650 0.845263 0.0
v 0.000000 1.000000 0.0
v 0.150000 0.588439 0.0
v 0.161928 0.668817 0.0
v 0.338284 0.834880 0.0
v 0.172682 0.712203 0.0
v 0.270033 0.818018 0.0
v 0.186273 0.754106 0.0
v 0.204293 0.794701 0.0

vn 0.0 0.0 1.0
vn 0.0 0.0 1.0
vn 0.0 0.0 1.0
vn 0.0 0.0 1.0
vn 0.0 0.0 1.0
vn 0.0 0.0 1.0
vn 0.0 0.0 1.0
vn 0.0 0.0 1.0
vn 0.0 0.0 1.0
vn 0.0 0.0 1.0
vn 0.0 0.0 1.0
vn 0.0 0.0 1.0
vn 0.0 0.0 1.0
vn 0.0 0.0 1.0
vn 0.0 0.0 1.0
vn 0.0 0.0 1.0
vn 0.0 0.0 1.0
vn 0.0 0.0 1.0
vn 0.0 0.0 1.0
vn 0.0 0.0 1.0
vn 0.0 0.0 1.0
vn 0.0 0.0 1.0
vn 0.0 0.0 1.0
vn 0.0 0.0 1.0
vn 0.0 0.0 1.0
vn 0.0 0.0 1.0
vn 0.0 0.0 1.0
vn 0.0 0.0 1.0
vn 0.0 0.0 1.0
vn 0.0 0.0 1.0
vn 0.0 0.0 1.0
vn 0.0 0.0 1.0
vn 0.0 0.0 1.0
vn 0.0 0.0 1.0
vn 0.0 0.0 1.0
vn 0.0 0.0 1.0
vn 0.0 0.0 1.0
vn 0.0 0.0 1.0
vn 0.0 0.0 1.0
vn 0.0 0.0 1.0

f 1 2 3
f 3 2 4
f 5 6 2
f 7 2 6
f 4 2 8
f 9 2 7
f 8 2 10
f 10 2 9
f 11 12 13
f 14 15 12
f 16 12 15
f 13 12 17
f 18 12 16
f 17 12 19
f 20 12 18
f 19 12 20
f 21 22 23
f 24 25 21
f 23 21 26
f 27 21 25
f 26 21 28
f 29 21 27
f 28 21 30
f 30 21 29
f 31 32 33
f 34 33 35
f 36 32 33
f 35 37 33
f 38 36 33
f 37 39 33
f 40 38 33
f 39 40 33
f 774905975 808923441 807416117
f 825505583 540489266 170929713
f 774905975 959985203 807417656
f 943143215 540028981 170929713
f 774905975 875705137 807416625
f 858798127 540488754 170929713
f 774905975 875640626 807417400
f 875903279 540094772 170929713
f 774905975 942748977 807417906
f 859191343 540618801 170929713
f 774905975 892811057 807416375
f 825375023 540160049 170929713
